<?xml version="1.0" encoding="UTF-8" standalone="no"?>
<svg
   xmlns:dc="http://purl.org/dc/elements/1.1/"
   xmlns:cc="http://creativecommons.org/ns#"
   xmlns:rdf="http://www.w3.org/1999/02/22-rdf-syntax-ns#"
   xmlns:svg="http://www.w3.org/2000/svg"
   xmlns="http://www.w3.org/2000/svg"
   xmlns:sodipodi="http://sodipodi.sourceforge.net/DTD/sodipodi-0.dtd"
   xmlns:inkscape="http://www.inkscape.org/namespaces/inkscape"
   id="Layer_1"
   data-name="Layer 1"
   viewBox="0 0 24 24"
   version="1.1"
   sodipodi:docname="box-circle-check (1).svg"
   inkscape:version="0.92.4 (5da689c313, 2019-01-14)">
  <metadata
     id="metadata9">
    <rdf:RDF>
      <cc:Work
         rdf:about="">
        <dc:format>image/svg+xml</dc:format>
        <dc:type
           rdf:resource="http://purl.org/dc/dcmitype/StillImage" />
        <dc:title></dc:title>
      </cc:Work>
    </rdf:RDF>
  </metadata>
  <defs
     id="defs7" />
  <sodipodi:namedview
     pagecolor="#ffffff"
     bordercolor="#666666"
     borderopacity="1"
     objecttolerance="10"
     gridtolerance="10"
     guidetolerance="10"
     inkscape:pageopacity="0"
     inkscape:pageshadow="2"
     inkscape:window-width="1920"
     inkscape:window-height="991"
     id="namedview5"
     showgrid="false"
     inkscape:zoom="9.8333333"
     inkscape:cx="12"
     inkscape:cy="12"
     inkscape:window-x="-9"
     inkscape:window-y="-9"
     inkscape:window-maximized="1"
     inkscape:current-layer="Layer_1" />
  <path
     d="m20,0H4C1.794,0,0,1.794,0,4v1c0,.886.387,1.684,1,2.234v11.766c0,2.757,2.243,5,5,5h3c.552,0,1-.448,1-1s-.448-1-1-1h-3c-1.654,0-3-1.346-3-3v-11h18v1c0,.552.448,1,1,1s1-.448,1-1v-1.766c.613-.55,1-1.347,1-2.234v-1c0-2.206-1.794-4-4-4ZM3,6c-.551,0-1-.449-1-1v-1c0-1.103.897-2,2-2h16c1.103,0,2,.897,2,2v1c0,.551-.449,1-1,1H3Zm14,4c-3.86,0-7,3.14-7,7s3.14,7,7,7,7-3.14,7-7-3.14-7-7-7Zm0,12c-2.757,0-5-2.243-5-5s2.243-5,5-5,5,2.243,5,5-2.243,5-5,5Zm3.221-6.212c.383.398.37,1.031-.029,1.414l-2.212,2.124c-.453.447-1.052.671-1.653.671s-1.204-.224-1.664-.674l-1.132-1.107c-.395-.387-.401-1.02-.015-1.415.388-.393,1.021-.4,1.415-.015l1.132,1.108c.144.143.378.141.522,0l2.223-2.134c.398-.383,1.031-.37,1.414.029Z"
     id="path2" />
  <rect
     style="opacity:1;fill-opacity:1;fill-rule:evenodd;stroke:none;stroke-width:4;stroke-miterlimit:10;stroke-dasharray:none;stroke-opacity:1;fill:#ffffff"
     id="rect821"
     width="7.6271186"
     height="5.3898306"
     x="13.016949"
     y="14.644068" />
  <path
     style="stroke-width:0.36783993"
     inkscape:connector-curvature="0"
     d="m 17.783632,16.917706 1.420419,-1.434791 a 0.54927244,0.55425862 0 0 0 -0.775206,-0.782243 l -1.421884,1.433312 -1.424447,-1.437746 a 0.54944846,0.55443625 0 1 0 -0.777037,0.784091 l 1.424813,1.437377 -1.420419,1.434421 a 0.54927244,0.55425862 0 1 0 0.775573,0.782613 l 1.421517,-1.433312 1.420052,1.433312 a 0.54944856,0.55443635 0 0 0 0.777038,-0.784091 z"
     id="path2-0" />
</svg>
